Coordinates
version=1
nRows=17
nColumns=36
inDegrees=yes

Units are S.I. units (second, meters, Newtons, ...)
If the header above contains a line with 'inDegrees', this indicates whether rotational values are in degrees (yes) or radians (no).

endheader
time	pelvis_tilt	pelvis_list	pelvis_rotation	pelvis_tx	pelvis_ty	pelvis_tz	hip_flexion_r	hip_adduction_r	hip_rotation_r	knee_angle_r	knee_angle_r_beta	ankle_angle_r	subtalar_angle_r	mtp_angle_r	hip_flexion_l	hip_adduction_l	hip_rotation_l	knee_angle_l	knee_angle_l_beta	ankle_angle_l	subtalar_angle_l	mtp_angle_l	lumbar_extension	lumbar_bending	lumbar_rotation	arm_flex_r	arm_add_r	arm_rot_r	elbow_flex_r	pro_sup_r	arm_flex_l	arm_add_l	arm_rot_l	elbow_flex_l	pro_sup_l
      4.65000000	    -18.15992638	      0.74235220	      0.38601244	     -0.43314747	      0.55173224	     -0.60129611	    104.45596350	     -7.52610439	      2.03924708	     95.97944904	      1.67515740	     13.63005049	     -1.08541433	     -7.49999982	    103.12084085	     -6.33717169	     -0.28102118	     93.74387281	      1.63613923	     12.98555610	     -4.76483427	     -7.49999982	    -53.66254694	      0.39913826	     -1.05935164	     63.99924202	    -28.62607340	      5.17271722	     96.14577225	     92.55746957	     75.74822770	    -28.98959635	     12.01883263	     83.58229723	     85.85656724
      4.66000000	    -19.56175459	      1.09105268	      0.47956882	     -0.42871264	      0.55145056	     -0.60102446	    105.69000019	     -7.70379288	      2.27140920	     96.13655554	      1.67789943	     13.94223195	     -0.95389935	     -7.49999982	    104.00584906	     -6.56852400	     -0.94297062	     93.67762380	      1.63498297	     13.44938281	     -4.59988016	     -7.49999982	    -53.59140505	      0.14380921	     -1.42981873	     65.56542574	    -28.68066695	      5.55178009	     95.83330091	     92.60081696	     77.79815565	    -28.55606436	     11.73323131	     82.97223200	     85.84515081
      4.67000000	    -20.87474754	      1.45600878	      0.59793423	     -0.42419440	      0.55146431	     -0.60094596	    106.90341901	     -8.01100563	      2.50019755	     96.35005637	      1.68162572	     14.05923041	     -0.54878702	     -7.49999982	    104.73812304	     -6.70305172	     -1.54663805	     93.59042866	      1.63346113	     13.99482988	     -4.36363027	     -7.49999982	    -53.51463580	     -0.05914019	     -1.78630854	     67.17666801	    -28.56750238	      5.84093254	     95.36097225	     92.63715359	     79.82814217	    -27.89407242	     11.13449556	     82.19634226	     85.90694595
      4.68000000	    -22.03306539	      1.72409652	      0.78984767	     -0.41943874	      0.55187036	     -0.60103724	    107.72747901	     -8.12216366	      2.85060819	     96.46150040	      1.68357078	     14.54156257	     -0.48130871	     -7.49999982	    105.28145765	     -6.71867750	     -2.02942961	     93.50010080	      1.63188461	     14.62689769	     -4.21695028	     -7.49999982	    -53.53833789	     -0.16172538	     -2.08374314	     68.78115627	    -28.47585963	      5.92884338	     94.96100744	     92.68076679	     81.74159952	    -27.53009892	     10.93944053	     81.73489986	     86.06452725
      4.69000000	    -23.14541385	      1.82892592	      1.00179599	     -0.41467160	      0.55266614	     -0.60105800	    108.24518050	     -8.02455318	      3.14655574	     96.35951523	      1.68179081	     15.10412863	     -0.68553242	     -7.49999982	    105.78058055	     -6.79406461	     -2.45878216	     93.32391132	      1.62880952	     15.10077033	     -4.14276526	     -7.49999982	    -53.59824440	     -0.15066115	     -2.17297692	     70.39417431	    -28.37697883	      5.84059426	     94.75231669	     92.71389727	     83.54134152	    -27.23690876	     11.00536762	     81.72432803	     86.19428415
      4.70000000	    -24.18920297	      2.03420698	      1.26730761	     -0.41001291	      0.55358106	     -0.60125928	    108.79197858	     -8.00458451	      3.56416740	     96.34183184	      1.68148217	     15.64830329	     -0.91857506	     -7.49999982	    106.17742719	     -6.79543295	     -2.99615899	     93.16647617	      1.62606176	     15.63166139	     -3.98592511	     -7.49999982	    -53.59754209	     -0.12199089	     -2.36941795	     72.14093830	    -28.28030487	      5.90024539	     94.35013331	     92.76417257	     85.27530543	    -26.64927495	     10.70910791	     81.37716727	     86.30628929
      4.71000000	    -25.19971233	      2.27610950	      1.53971475	     -0.40562517	      0.55483869	     -0.60164037	    109.38048207	     -8.16686192	      3.93529096	     96.33268607	      1.68132255	     15.92130758	     -0.98360027	     -7.49999982	    106.50891344	     -6.68781623	     -3.46699717	     92.93907599	      1.62209288	     16.08852687	     -3.76871619	     -7.49999982	    -53.50479469	     -0.00849451	     -2.60328284	     74.01541822	    -28.08098361	      6.12617630	     93.82143040	     92.83668872	     86.82217146	    -25.61209781	      9.70656190	     80.82313043	     86.38127815
      4.72000000	    -26.10132670	      2.46843895	      1.70951958	     -0.40133885	      0.55670114	     -0.60160754	    109.76213510	     -8.14825134	      4.21521652	     96.23070589	      1.67954266	     16.13737543	     -1.05273377	     -7.49999982	    106.69940977	     -6.66215923	     -3.82621831	     92.67215836	      1.61743429	     16.45751644	     -3.54335525	     -7.49999982	    -53.45884741	      0.04378586	     -2.75322661	     75.85874236	    -27.75969790	      6.30817273	     93.31347765	     92.90852647	     88.25728634	    -24.54222181	      8.71211155	     80.43484312	     86.42649288
      4.73000000	    -26.82737566	      2.70959571	      1.76781471	     -0.39707758	      0.55909741	     -0.60125218	    109.91903710	     -7.93824193	      4.55331274	     96.06678100	      1.67668163	     16.42095984	     -1.25367146	     -7.49999982	    106.67796385	     -6.76640956	     -4.13177352	     92.41042978	      1.61286626	     16.86546135	     -3.25288133	     -7.49999982	    -53.54272017	     -0.08839521	     -2.84794035	     77.61118545	    -27.40631564	      6.38789512	     92.81395885	     92.99110220	     89.63084735	    -23.59462144	      7.95548545	     80.17931744	     86.49079016
      4.74000000	    -27.52331397	      2.93522125	      1.92183572	     -0.39290662	      0.56182084	     -0.60117223	    109.99187657	     -7.79437358	      4.95121158	     95.86736937	      1.67320124	     16.68592461	     -1.47995934	     -7.49999982	    106.58413141	     -6.72334466	     -4.46825032	     92.04926531	      1.60656275	     17.21539422	     -3.04242880	     -7.49999982	    -53.58698407	     -0.14511229	     -2.91945294	     79.21986183	    -27.08635265	      6.36900891	     92.41870224	     93.04644465	     90.91522290	    -22.74391977	      7.36746430	     80.13198612	     86.56628996
      4.75000000	    -28.20599897	      3.14142614	      2.20622442	     -0.38892573	      0.56480722	     -0.60161372	    110.04601315	     -7.87074655	      5.34225046	     95.64607719	      1.66933896	     16.92737456	     -1.66567382	     -7.49999982	    106.43358038	     -6.40061968	     -4.75841459	     91.58618903	      1.59848055	     17.59164379	     -2.91281114	     -7.49999982	    -53.52846544	     -0.04126507	     -3.05368136	     80.79894965	    -26.76837433	      6.42779766	     91.98120645	     93.10542391	     91.95839221	    -21.86355483	      6.67040235	     80.11898615	     86.66474507
      4.76000000	    -28.98948890	      3.24349008	      2.33553753	     -0.38504933	      0.56783057	     -0.60164460	    110.11470113	     -7.76184112	      5.57962516	     95.31735428	      1.66360167	     17.04430371	     -1.72048708	     -7.49999982	    106.44948726	     -6.21235680	     -4.84211256	     91.18030421	      1.59139652	     17.72117284	     -2.89615744	     -7.49999982	    -53.23474736	      0.00345939	     -2.96442945	     82.04921395	    -26.39695892	      6.37293878	     91.95897660	     93.11471728	     92.73664149	    -21.23705663	      6.61529153	     80.33312171	     86.70637697
      4.77000000	    -29.57131995	      3.54354393	      2.41635238	     -0.38129065	      0.57214533	     -0.60154969	    109.83842494	     -7.54796147	      6.00250973	     94.75568152	      1.65379863	     17.37152869	     -1.98105529	     -7.49999982	    105.97258581	     -6.03259376	     -5.13939918	     90.44668475	      1.57859245	     18.14875518	     -2.90462669	     -7.49999982	    -53.18746375	     -0.12399472	     -3.12348611	     83.56038676	    -25.98959926	      6.55600244	     91.28092017	     93.15981534	     93.48209939	    -20.40488264	      5.65804385	     80.47938776	     86.79877487
      4.78000000	    -30.29237055	      3.69152657	      2.36567955	     -0.37755800	      0.57653975	     -0.60115578	    109.61430256	     -7.25782727	      6.18859753	     94.08313428	      1.64206046	     17.50798143	     -2.05117367	     -7.49999982	    105.72955270	     -6.04902403	     -5.23286066	     89.77243213	      1.56682452	     18.24928378	     -2.82452208	     -7.49999982	    -52.88898334	     -0.27226283	     -3.00790202	     84.61923848	    -25.59365786	      6.50813112	     91.18967829	     93.17890451	     94.00710915	    -19.85586883	      5.52098702	     80.77979942	     86.85587750
      4.79000000	    -30.86384416	      3.84643437	      2.38387815	     -0.37379459	      0.58167296	     -0.60123114	    109.20050100	     -7.18310410	      6.33253513	     93.37271319	      1.62966128	     17.73293257	     -2.23197472	     -7.49999982	    105.27262642	     -5.94336152	     -5.36425393	     89.02163342	      1.55372061	     18.43444144	     -2.58550948	     -7.49999982	    -52.68546096	     -0.28373112	     -3.05264394	     85.72932476	    -24.93041667	      6.54351820	     90.85540181	     93.26645332	     94.24793414	    -19.23605029	      4.76509937	     81.26724099	     86.99529701
      4.80000000	    -31.49449243	      3.85873918	      2.47103712	     -0.37016941	      0.58724199	     -0.60158666	    108.75487829	     -7.30426499	      6.28397832	     92.53388299	      1.61502093	     17.85380177	     -2.23516683	     -7.49999983	    104.84854204	     -5.65452030	     -5.32611001	     88.12606112	      1.53808992	     18.50810704	     -2.49231058	     -7.49999983	    -52.36270228	     -0.10697590	     -2.98872921	     86.65040575	    -24.34316444	      6.58439276	     90.76553614	     93.35657628	     94.33817709	    -18.87623120	      4.38972445	     81.78305604	     87.15496700
      4.81000000	    -32.12375107	      3.86613646	      2.38604292	     -0.36659671	      0.59327804	     -0.60144649	    108.22382925	     -7.22414216	      6.18675451	     91.52656629	      1.59743993	     17.88024096	     -2.17583183	     -7.49999983	    104.34789186	     -5.56304828	     -5.27092580	     87.15011612	      1.52105647	     18.56205821	     -2.48617040	     -7.49999983	    -51.97819974	     -0.11710132	     -2.76331760	     87.30702666	    -23.93199561	      6.60339297	     90.84863860	     93.38806477	     94.40608018	    -18.62183565	      4.40943826	     82.08194966	     87.22343817
